<svg width="19" height="18" viewBox="0 0 19 18" fill="none" xmlns="http://www.w3.org/2000/svg">
<path d="M8.74243 0.846191C8.89211 0.385534 9.54393 0.385539 9.6936 0.846191L11.1838 5.43311C11.3846 6.05112 11.9608 6.46921 12.6106 6.46924H17.4338C17.9182 6.46924 18.1196 7.08981 17.7278 7.37451L13.8254 10.2095C13.3 10.5914 13.0798 11.2684 13.2805 11.8862L14.7717 16.4741C14.9209 16.9345 14.3939 17.3171 14.0022 17.0327L10.0999 14.1978C9.57412 13.8158 8.86191 13.8158 8.33618 14.1978L4.43384 17.0327C4.04213 17.3171 3.51518 16.9345 3.66431 16.4741L5.15552 11.8862C5.3562 11.2684 5.13606 10.5914 4.6106 10.2095L0.708252 7.37451C0.316393 7.08981 0.517838 6.46924 1.0022 6.46924H5.82544C6.47525 6.46921 7.05139 6.05112 7.2522 5.43311L8.74243 0.846191Z" stroke="#EDD501"/>
</svg>
