<svg width="16" height="13" viewBox="0 0 16 13" fill="none" xmlns="http://www.w3.org/2000/svg">
<path d="M16 1.49954C15.405 1.75385 14.771 1.92241 14.11 2.00426C14.79 1.60867 15.309 0.987026 15.553 0.237744C14.919 0.606051 14.219 0.866205 13.473 1.01138C12.871 0.386821 12.013 0 11.077 0C9.261 0 7.799 1.43621 7.799 3.19687C7.799 3.45021 7.821 3.69379 7.875 3.92569C5.148 3.7961 2.735 2.52262 1.114 0.582667C0.831 1.06108 0.665 1.60867 0.665 2.19815C0.665 3.30503 1.25 4.2862 2.122 4.85426C1.595 4.84451 1.078 4.69544 0.64 4.46062C0.64 4.47036 0.64 4.48303 0.64 4.49569C0.64 6.04882 1.777 7.33887 3.268 7.63605C3.001 7.70718 2.71 7.74128 2.408 7.74128C2.198 7.74128 1.986 7.72959 1.787 7.68672C2.212 8.95241 3.418 9.88292 4.852 9.91313C3.736 10.7637 2.319 11.2763 0.785 11.2763C0.516 11.2763 0.258 11.2646 0 11.2324C1.453 12.1454 3.175 12.6667 5.032 12.6667C11.068 12.6667 14.368 7.79487 14.368 3.572C14.368 3.43072 14.363 3.29431 14.356 3.15887C15.007 2.70872 15.554 2.14651 16 1.49954Z" fill="#2E2520"/>
</svg>
